<svg xmlns="http://www.w3.org/2000/svg" width="64" height="64" viewBox="0 0 64 64" fill="none">
  <rect width="64" height="64" rx="12" fill="#3B82F6"/>
  <path d="M20 36C20 32.6863 22.6863 30 26 30H38C41.3137 30 44 32.6863 44 36V42C44 45.3137 41.3137 48 38 48H26C22.6863 48 20 45.3137 20 42V36Z" fill="white"/>
  <path d="M26 16C26 13.7909 27.7909 12 30 12H34C36.2091 12 38 13.7909 38 16V28C38 30.2091 36.2091 32 34 32H30C27.7909 32 26 30.2091 26 28V16Z" fill="white"/>
  <path d="M20 16C20 13.7909 21.7909 12 24 12H28C30.2091 12 32 13.7909 32 16V24C32 26.2091 30.2091 28 28 28H24C21.7909 28 20 26.2091 20 24V16Z" fill="#93C5FD"/>
  <path d="M36 20C36 17.7909 37.7909 16 40 16H44C46.2091 16 48 17.7909 48 20V24C48 26.2091 46.2091 28 44 28H40C37.7909 28 36 26.2091 36 24V20Z" fill="#93C5FD"/>
</svg> 